<?xml version="1.0" encoding="UTF-8" standalone="no"?>
<svg
   xmlns:dc="http://purl.org/dc/elements/1.1/"
   xmlns:cc="http://creativecommons.org/ns#"
   xmlns:rdf="http://www.w3.org/1999/02/22-rdf-syntax-ns#"
   xmlns:svg="http://www.w3.org/2000/svg"
   xmlns="http://www.w3.org/2000/svg"
   xmlns:sodipodi="http://sodipodi.sourceforge.net/DTD/sodipodi-0.dtd"
   xmlns:inkscape="http://www.inkscape.org/namespaces/inkscape"
   width="278"
   height="100"
   viewBox="0 0 278 100"
   version="1.1"
   id="svg3749"
   sodipodi:docname="High-Resolution-Color-Logo.svg"
   inkscape:version="0.92.4 (5da689c313, 2019-01-14)">
  <metadata
     id="metadata3755">
    <rdf:RDF>
      <cc:Work
         rdf:about="">
        <dc:format>image/svg+xml</dc:format>
        <dc:type
           rdf:resource="http://purl.org/dc/dcmitype/StillImage" />
        <dc:title></dc:title>
      </cc:Work>
    </rdf:RDF>
  </metadata>
  <defs
     id="defs3753" />
  <sodipodi:namedview
     pagecolor="#ffffff"
     bordercolor="#666666"
     borderopacity="1"
     objecttolerance="10"
     gridtolerance="10"
     guidetolerance="10"
     inkscape:pageopacity="0"
     inkscape:pageshadow="2"
     inkscape:window-width="2560"
     inkscape:window-height="1361"
     id="namedview3751"
     showgrid="false"
     inkscape:zoom="2.92"
     inkscape:cx="131.67808"
     inkscape:cy="76.712329"
     inkscape:window-x="-9"
     inkscape:window-y="891"
     inkscape:window-maximized="1"
     inkscape:current-layer="g3747" />
  <g
     data-name="icon"
     data="id:4856887"
     transform="matrix(0.74179617,0,0,0.73961455,84.540318,-1.1679159)"
     id="g3743"
     style="fill:#333941">
    <defs
       id="defs3737" />
    <g
       id="g3741">
      <path
         class="fil0"
         d="m 36.385,69.319 c -0.094,-0.358 0.12,-0.724 0.478,-0.819 0.358,-0.094 0.724,0.12 0.818,0.478 0.58,2.186 1.398,4.279 2.425,6.251 1.046,2.01 2.303,3.883 3.74,5.59 0.22,0.26 0.414,0.524 0.584,0.791 1.546,2.414 1.64,5.561 0.811,8.544 -0.729,2.628 -2.183,5.145 -3.988,6.916 2.444,-0.432 4.632,-1.716 6.836,-3.009 3.616,-2.123 7.27,-4.268 12.295,-3.111 1.117,0.258 2.259,0.454 3.421,0.586 1.137,0.128 2.3,0.194 3.484,0.194 8.458,0 16.115,-3.428 21.658,-8.97 5.543,-5.543 8.971,-13.2 8.971,-21.658 0,-8.458 -3.428,-16.115 -8.971,-21.658 -5.543,-5.542 -13.2,-8.971 -21.658,-8.971 -0.37,0 -0.671,-0.3 -0.671,-0.671 0,-0.371 0.301,-0.671 0.671,-0.671 8.829,0 16.822,3.578 22.607,9.364 5.786,5.786 9.365,13.778 9.365,22.607 0,8.828 -3.579,16.821 -9.365,22.607 -5.785,5.786 -13.778,9.364 -22.607,9.364 -1.221,0 -2.433,-0.07 -3.631,-0.205 -1.212,-0.137 -2.405,-0.342 -3.573,-0.611 -4.51,-1.039 -7.933,0.97 -11.319,2.958 -2.96,1.737 -5.893,3.458 -9.568,3.339 -0.226,0.005 -0.45,-0.104 -0.581,-0.308 -0.2,-0.312 -0.109,-0.726 0.202,-0.926 0.321,-0.205 0.628,-0.432 0.92,-0.679 1.904,-1.602 3.465,-4.154 4.212,-6.844 0.734,-2.644 0.672,-5.4 -0.648,-7.463 -0.15,-0.234 -0.31,-0.453 -0.48,-0.655 -1.51,-1.793 -2.823,-3.748 -3.908,-5.831 -1.069,-2.052 -1.922,-4.239 -2.53,-6.529 z m 24.417,1.544 c -3.676,0.119 -6.609,-1.602 -9.568,-3.339 -3.387,-1.988 -6.809,-3.997 -11.319,-2.958 -1.169,0.269 -2.361,0.474 -3.573,0.611 -1.198,0.136 -2.41,0.206 -3.632,0.206 -8.828,0 -16.821,-3.579 -22.607,-9.365 C 4.317,50.233 0.739,42.24 0.739,33.411 0.739,24.583 4.317,16.59 10.103,10.804 15.889,5.018 23.882,1.44 32.71,1.44 c 8.829,0 16.822,3.578 22.607,9.364 5.786,5.786 9.365,13.779 9.365,22.607 0,1.72 -0.137,3.41 -0.399,5.057 4.596,1.626 9.41,3.801 13.263,6.679 6.291,4.697 10.046,11.224 6.34,20.214 -1.466,3.556 -4.349,6.324 -7.936,7.711 -3.362,1.299 -7.338,1.386 -11.34,-0.229 -0.343,-0.138 -0.51,-0.528 -0.372,-0.871 0.137,-0.343 0.527,-0.51 0.871,-0.372 3.668,1.48 7.298,1.406 10.358,0.223 1.448,-0.559 2.77,-1.368 3.907,-2.376 -1.74,1.088 -3.747,1.721 -5.864,1.721 -3.216,0 -6.126,-1.359 -8.232,-3.557 -2.1,-2.191 -3.399,-5.214 -3.399,-8.55 0,-2.546 0.993,-4.854 2.597,-6.528 1.61,-1.68 3.835,-2.719 6.294,-2.719 2.459,0 4.684,1.039 6.294,2.719 1.604,1.674 2.596,3.982 2.596,6.528 0,1.757 -0.685,3.351 -1.793,4.507 -1.115,1.163 -2.655,1.882 -4.357,1.882 -1.703,0 -3.243,-0.719 -4.357,-1.882 -1.109,-1.156 -1.794,-2.75 -1.794,-4.507 0,-0.967 0.379,-1.846 0.991,-2.485 0.619,-0.646 1.474,-1.045 2.42,-1.045 0.946,0 1.801,0.399 2.42,1.045 0.612,0.639 0.991,1.518 0.991,2.485 0,0.371 -0.3,0.672 -0.671,0.672 -0.371,0 -0.672,-0.301 -0.672,-0.672 0,-0.611 -0.234,-1.161 -0.613,-1.557 -0.373,-0.389 -0.888,-0.63 -1.455,-0.63 -0.567,0 -1.082,0.241 -1.455,0.63 -0.379,0.396 -0.613,0.946 -0.613,1.557 0,1.401 0.541,2.666 1.416,3.579 0.869,0.907 2.068,1.468 3.392,1.468 1.323,0 2.523,-0.561 3.391,-1.468 0.875,-0.913 1.416,-2.178 1.416,-3.579 0,-2.19 -0.847,-4.17 -2.218,-5.6 -1.365,-1.424 -3.249,-2.304 -5.329,-2.304 -2.08,0 -3.964,0.88 -5.329,2.304 -1.371,1.43 -2.218,3.41 -2.218,5.6 0,2.98 1.154,5.674 3.02,7.622 1.861,1.941 4.43,3.142 7.267,3.142 2.821,0 5.428,-1.286 7.338,-3.31 1.631,-1.73 2.751,-3.995 3.063,-6.457 0.463,-4.403 -1.202,-8.048 -4.023,-11.056 -0.748,-0.713 -1.588,-1.359 -2.52,-1.959 -1.203,-0.773 -2.561,-1.47 -4.07,-2.135 -2.85,-1.257 -6.143,-2.356 -9.682,-3.289 -0.246,0.932 -0.534,1.846 -0.861,2.742 -1.292,3.543 -3.193,6.794 -5.579,9.628 -0.17,0.201 -0.329,0.42 -0.479,0.654 -1.321,2.063 -1.383,4.819 -0.648,7.464 0.747,2.69 2.308,5.241 4.211,6.844 0.292,0.246 0.6,0.473 0.92,0.678 0.312,0.2 0.402,0.615 0.202,0.926 -0.131,0.204 -0.354,0.314 -0.58,0.308 z m 3.239,-31.06 c -0.068,0.337 -0.142,0.672 -0.221,1.005 3.511,0.924 6.786,2.012 9.635,3.254 -2.956,-1.721 -6.23,-3.124 -9.414,-4.259 z M 8.307,30.203 C 7.955,30.09 7.761,29.713 7.874,29.361 c 0.113,-0.352 0.49,-0.546 0.842,-0.432 2.34,0.755 6.716,1.777 11.758,2.954 l 1.063,0.248 c -2.087,-2.164 -3.969,-4.236 -5.292,-6.034 -1.949,-2.648 -1.953,-5.126 -1.015,-6.895 0.603,-1.135 1.596,-1.976 2.718,-2.385 1.134,-0.414 2.401,-0.389 3.536,0.213 0.612,0.324 1.185,0.817 1.673,1.5 0.178,-0.047 0.359,-0.083 0.541,-0.108 0.726,-0.1 1.472,-0.026 2.154,0.229 0.696,0.26 1.322,0.703 1.792,1.334 0.409,0.547 0.699,1.232 0.813,2.057 0.212,1.536 0.235,3.826 0.146,6.461 0.491,0.177 0.992,0.353 1.502,0.526 0.995,-1.603 1.96,-3.17 2.857,-4.646 -1.675,-5.446 -2.822,-10.006 -2.561,-11.272 0.371,-1.797 1.862,-2.741 3.546,-2.939 0.786,-0.093 1.616,-0.018 2.387,0.211 0.782,0.233 1.509,0.629 2.074,1.176 1.091,1.059 1.571,2.634 0.71,4.635 -0.673,1.567 -2.455,4.657 -4.701,8.367 0.344,1.098 0.707,2.233 1.083,3.383 0.332,1.012 0.673,2.035 1.019,3.054 0.104,0.03 0.208,0.059 0.312,0.088 1.878,-3.568 3.609,-6.493 4.544,-7.446 0.253,-0.258 0.525,-0.479 0.809,-0.664 0.986,-0.641 2.119,-0.848 3.192,-0.712 1.07,0.136 2.083,0.616 2.83,1.35 0.224,0.22 0.425,0.463 0.598,0.728 0.66,1.015 0.851,2.366 0.465,3.688 -0.339,1.16 -1.12,2.299 -2.415,3.165 -1.011,0.674 -2.551,1.215 -4.622,1.332 2.271,0.582 4.561,1.148 6.805,1.701 2.585,0.638 5.107,1.261 7.531,1.894 1.962,0.513 4.153,1.141 6.426,1.903 0.227,-1.504 0.345,-3.045 0.345,-4.614 0,-8.457 -3.428,-16.115 -8.971,-21.657 -5.543,-5.543 -13.2,-8.971 -21.658,-8.971 -8.457,0 -16.115,3.428 -21.657,8.971 -5.543,5.542 -8.971,13.2 -8.971,21.657 0,8.458 3.428,16.115 8.971,21.658 5.542,5.543 13.2,8.971 21.657,8.971 1.185,0 2.348,-0.066 3.485,-0.195 1.162,-0.131 2.303,-0.328 3.421,-0.585 5.024,-1.158 8.679,0.988 12.295,3.11 2.203,1.293 4.392,2.578 6.835,3.009 -1.805,-1.771 -3.258,-4.288 -3.988,-6.916 -0.828,-2.982 -0.734,-6.13 0.811,-8.544 0.171,-0.266 0.365,-0.53 0.584,-0.791 2.283,-2.711 4.105,-5.826 5.343,-9.223 0.312,-0.855 0.586,-1.728 0.822,-2.617 -5.667,-1.405 -11.886,-2.391 -17.886,-2.917 2.43,0.923 4.275,1.852 5.194,2.764 0.932,0.925 1.57,2.062 1.734,3.301 0.149,1.125 -0.092,2.317 -0.856,3.487 -0.369,0.567 -0.894,1.071 -1.51,1.47 -0.818,0.532 -1.806,0.887 -2.807,0.966 -1.028,0.082 -2.075,-0.122 -2.985,-0.716 -0.513,-0.335 -0.978,-0.79 -1.363,-1.384 -0.797,-1.227 -2.464,-5.316 -4.285,-10.292 -1.089,-0.031 -2.158,-0.045 -3.203,-0.041 -0.673,1.416 -1.315,2.816 -1.896,4.132 2.419,2.624 4.194,4.893 4.507,6.395 0.391,1.868 -0.29,3.134 -1.403,3.847 -0.581,0.372 -1.279,0.586 -2.001,0.65 -0.712,0.064 -1.448,-0.018 -2.114,-0.237 -1.407,-0.462 -2.521,-1.525 -2.526,-3.116 -0.003,-1.031 1.048,-3.896 2.556,-7.37 -1.078,-1.152 -2.276,-2.376 -3.524,-3.631 -0.209,2.464 -0.433,4.825 -0.623,6.827 -0.257,2.709 -0.45,4.753 -0.458,5.445 -0.018,1.828 -1.023,2.892 -2.38,3.339 -0.958,0.315 -2.094,0.297 -3.153,0.008 -1.06,-0.29 -2.056,-0.856 -2.733,-1.639 -0.935,-1.081 -1.282,-2.533 -0.437,-4.208 -0.117,-0.033 -0.233,-0.069 -0.348,-0.109 -0.788,-0.277 -1.513,-0.745 -2.069,-1.379 -1.205,-1.373 -1.439,-2.63 -1.097,-3.755 0.331,-1.091 1.207,-2.018 2.253,-2.786 1.512,-1.11 3.972,-1.925 7.077,-2.461 0.045,-1.032 0.072,-2.099 0.083,-3.172 -0.261,-0.263 -0.522,-0.526 -0.781,-0.788 -1.058,-0.249 -2.1,-0.492 -3.115,-0.729 -5.055,-1.18 -9.445,-2.205 -11.862,-2.986 z m 14.741,2.282 c 0.34,0.08 0.682,0.16 1.025,0.241 -0.006,-1.613 -0.037,-3.196 -0.075,-4.644 -0.726,-0.333 -1.41,-0.672 -2.048,-1.02 -0.635,-0.345 -1.124,-0.776 -1.485,-1.259 -0.561,-0.753 -0.813,-1.628 -0.819,-2.507 -0.006,-0.855 0.225,-1.711 0.631,-2.456 0.337,-0.62 0.795,-1.165 1.338,-1.571 0.228,-0.17 0.471,-0.316 0.724,-0.438 -0.375,-0.474 -0.798,-0.823 -1.245,-1.061 -0.915,-0.484 -1.94,-0.502 -2.861,-0.166 -0.933,0.34 -1.759,1.041 -2.262,1.988 -0.803,1.514 -0.777,3.665 0.949,6.01 1.485,2.018 3.704,4.406 6.128,6.883 z m 1.861,0.438 c 0.695,0.165 1.395,0.332 2.097,0.501 0.093,-1.374 0.17,-2.724 0.225,-4.003 -0.831,-0.314 -1.628,-0.635 -2.387,-0.963 0.035,1.404 0.062,2.921 0.065,4.465 z m 12.744,-1.609 0.02,0.005 c 1.167,0.234 2.231,0.355 3.193,0.386 2.59,0.086 4.422,-0.471 5.522,-1.205 1.119,-0.748 1.79,-1.719 2.078,-2.703 0.316,-1.085 0.167,-2.183 -0.364,-2.999 -0.138,-0.212 -0.3,-0.409 -0.483,-0.587 -0.618,-0.607 -1.458,-1.004 -2.348,-1.117 -0.887,-0.113 -1.821,0.057 -2.631,0.584 -0.233,0.152 -0.457,0.334 -0.668,0.548 -0.876,0.893 -2.517,3.668 -4.319,7.088 z m 25.11,8.045 c -2.309,-0.78 -4.54,-1.421 -6.531,-1.941 -2.331,-0.609 -4.891,-1.241 -7.515,-1.889 -3.862,-0.953 -7.861,-1.94 -11.672,-2.994 0.453,1.313 0.91,2.609 1.36,3.859 1.028,0.3 2.018,0.603 2.959,0.907 0.261,0.016 0.522,0.033 0.783,0.051 6.749,0.461 13.913,1.522 20.374,3.124 0.088,-0.37 0.168,-0.742 0.242,-1.117 z m -26.748,-2.26 c -0.371,-0.102 -0.745,-0.204 -1.122,-0.305 -0.046,0.094 -0.091,0.188 -0.136,0.282 l -0.008,0.015 c 0.419,0 0.841,0.003 1.266,0.008 z M 34.07,36.575 c -1.898,-0.502 -3.868,-0.996 -5.841,-1.477 -0.056,0.756 -0.115,1.513 -0.176,2.265 1.802,-0.158 3.738,-0.246 5.767,-0.267 0.061,-0.127 0.122,-0.254 0.183,-0.381 z M 18.59,47.611 c 1.145,-1.976 3.097,-5.119 5.338,-8.701 0.004,-0.063 0.008,-0.127 0.011,-0.19 -2.875,0.51 -5.144,1.27 -6.539,2.295 -0.917,0.673 -1.679,1.464 -1.949,2.353 -0.259,0.855 -0.056,1.841 0.927,2.961 0.458,0.522 1.059,0.909 1.716,1.14 0.162,0.057 0.328,0.104 0.496,0.142 z m 6.243,-10.146 0.766,-1.222 c -0.237,-0.237 -0.474,-0.475 -0.711,-0.712 -0.012,0.651 -0.03,1.298 -0.055,1.934 z m 1.222,-1.95 0.513,-0.818 c -0.556,-0.133 -1.111,-0.266 -1.664,-0.396 v 0.061 c 0.383,0.384 0.767,0.769 1.151,1.153 z m 6.998,-5.535 c 0.039,0.003 0.078,0.012 0.116,0.026 0.053,0.02 0.106,0.039 0.158,0.059 0.535,0.163 1.078,0.325 1.626,0.485 -0.246,-0.733 -0.489,-1.466 -0.727,-2.192 -0.251,-0.767 -0.496,-1.528 -0.734,-2.277 -0.669,1.094 -1.368,2.228 -2.083,3.381 0.539,0.175 1.088,0.348 1.644,0.518 z m 3.138,4.177 c -0.235,0.468 -0.47,0.941 -0.704,1.416 0.45,0.122 0.895,0.245 1.335,0.369 -0.21,-0.588 -0.421,-1.184 -0.631,-1.785 z m 3.06,3.871 c -0.085,-0.004 -0.171,-0.007 -0.256,-0.011 1.705,4.641 3.235,8.387 3.967,9.513 0.278,0.429 0.608,0.755 0.969,0.99 0.641,0.419 1.398,0.562 2.151,0.502 0.779,-0.062 1.547,-0.338 2.183,-0.751 0.463,-0.301 0.851,-0.67 1.117,-1.077 0.576,-0.882 0.76,-1.764 0.651,-2.585 -0.123,-0.928 -0.621,-1.799 -1.352,-2.525 -1.311,-1.3 -4.885,-2.688 -9.43,-4.056 z m -12.622,0.307 c -0.279,0.031 -0.556,0.065 -0.827,0.1 -0.385,0.615 -0.763,1.219 -1.132,1.809 -0.174,2.131 -0.461,3.996 -0.914,5.286 -0.289,0.825 -0.738,1.47 -1.285,1.95 -0.647,0.568 -1.426,0.9 -2.239,1.02 -0.212,0.032 -0.426,0.048 -0.641,0.051 -0.046,0.08 -0.09,0.158 -0.133,0.233 -0.671,1.188 -0.469,2.192 0.157,2.916 0.5,0.578 1.256,1.001 2.072,1.224 0.816,0.224 1.677,0.241 2.387,0.008 0.831,-0.273 1.446,-0.934 1.458,-2.075 0.008,-0.759 0.203,-2.823 0.463,-5.56 0.193,-2.038 0.422,-4.452 0.634,-6.962 z M 23.843,19.754 c 0.486,1.11 0.802,2.536 0.863,4.32 l 0.017,0.487 c 0.025,0.723 0.053,1.537 0.08,2.417 0.781,0.351 1.609,0.694 2.479,1.03 0.069,-2.363 0.039,-4.4 -0.152,-5.782 -0.081,-0.586 -0.281,-1.064 -0.561,-1.439 -0.312,-0.418 -0.725,-0.711 -1.183,-0.882 -0.471,-0.176 -0.992,-0.227 -1.504,-0.156 -0.013,0.002 -0.026,0.003 -0.039,0.005 z m 10.822,15.598 c 0.379,-0.773 0.763,-1.54 1.144,-2.291 -0.111,-0.322 -0.222,-0.644 -0.332,-0.966 -1.652,-0.473 -3.26,-0.959 -4.795,-1.463 -0.66,1.061 -1.328,2.133 -1.996,3.199 2.019,0.493 4.035,1.002 5.979,1.521 z m -2.574,7.54 c -1.388,3.208 -2.339,5.797 -2.336,6.705 0.003,1.169 0.862,1.962 1.948,2.319 0.564,0.185 1.184,0.255 1.783,0.201 0.589,-0.052 1.155,-0.224 1.62,-0.522 0.836,-0.535 1.342,-1.509 1.036,-2.972 -0.27,-1.294 -1.853,-3.332 -4.051,-5.731 z m -0.253,-1.496 c 0.494,-1.116 1.028,-2.283 1.584,-3.462 -1.657,0.023 -3.247,0.091 -4.745,0.207 1.109,1.117 2.179,2.21 3.161,3.255 z m -5.127,-4.042 -0.142,-0.142 -0.203,0.323 c 0.111,-0.013 0.222,-0.026 0.333,-0.038 z M 23.954,26.583 c -0.023,-0.719 -0.046,-1.39 -0.067,-1.995 L 23.87,24.1 c -0.059,-1.735 -0.368,-3.09 -0.836,-4.113 -0.216,0.094 -0.424,0.214 -0.616,0.357 -0.391,0.292 -0.722,0.686 -0.966,1.136 -0.301,0.552 -0.472,1.185 -0.468,1.811 0.004,0.601 0.175,1.198 0.557,1.709 0.252,0.339 0.598,0.642 1.048,0.888 0.433,0.235 0.889,0.467 1.365,0.695 z m -0.988,18.671 c 0.31,-0.883 0.539,-2.057 0.706,-3.411 -1.437,2.305 -2.683,4.328 -3.569,5.829 l 0.008,-10e-4 c 0.66,-0.098 1.291,-0.365 1.809,-0.82 0.442,-0.388 0.807,-0.916 1.046,-1.597 z m 8.747,-31.875 c -0.202,0.98 0.745,4.753 2.176,9.469 1.915,-3.188 3.402,-5.802 3.997,-7.184 0.598,-1.392 0.3,-2.454 -0.412,-3.144 -0.402,-0.39 -0.937,-0.677 -1.523,-0.852 -0.598,-0.178 -1.243,-0.235 -1.852,-0.164 -1.146,0.135 -2.152,0.739 -2.386,1.875 z M 28.455,31.68 c 0.31,-0.496 0.619,-0.991 0.925,-1.484 -0.28,-0.097 -0.558,-0.194 -0.833,-0.292 -0.026,0.581 -0.057,1.174 -0.092,1.776 z"
         id="path3739"
         inkscape:connector-curvature="0" />
    </g>
  </g>
  <g
     data-name="business_name"
     data="id:300"
     transform="matrix(0.56964679,0,0,0.56964679,-0.7701678,-231.61737)"
     id="g3747"
     style="fill:#333941">
    <path
       d="m 15.462379,564.94094 q 0,2.4 -0.59,4.3 -0.59,1.9 -1.74,3.21 -1.15,1.31 -2.83,2.01 -1.68,0.7 -3.86,0.7 -1.94,0 -4.04,-0.56 0.04,-0.58 0.1,-1.15 0.06,-0.57 0.12,-1.13 0.04,-0.34 0.25,-0.55 0.21,-0.21 0.63,-0.21 0.36,0 0.96,0.18 0.6,0.18 1.6,0.18 1.32,0 2.35,-0.4 1.03,-0.4 1.74,-1.24 0.71,-0.84 1.08,-2.15 0.37,-1.31 0.37,-3.11 v -18.84 h 3.86 z m 14.62,-10.68 q 2.22,0 4.01,0.74 1.79,0.74 3.04,2.1 1.25,1.36 1.92,3.29 0.67,1.93 0.67,4.31 0,2.4 -0.67,4.32 -0.67,1.92 -1.92,3.28 -1.25,1.36 -3.04,2.09 -1.79,0.73 -4.01,0.73 -2.22,0 -4.01,-0.73 -1.79,-0.73 -3.05,-2.09 -1.26,-1.36 -1.94,-3.28 -0.68,-1.92 -0.68,-4.32 0,-2.38 0.68,-4.31 0.68,-1.93 1.94,-3.29 1.26,-1.36 3.05,-2.1 1.79,-0.74 4.01,-0.74 z m 0,18.08 q 3,0 4.48,-2.01 1.48,-2.01 1.48,-5.61 0,-3.62 -1.48,-5.64 -1.48,-2.02 -4.48,-2.02 -1.52,0 -2.64,0.52 -1.12,0.52 -1.87,1.5 -0.75,0.98 -1.12,2.41 -0.37,1.43 -0.37,3.23 0,1.8 0.37,3.22 0.37,1.42 1.12,2.39 0.75,0.97 1.87,1.49 1.12,0.52 2.64,0.52 z m 28.3,2.5 q -0.76,0 -0.96,-0.74 l -0.32,-2.46 q -1.3,1.58 -2.97,2.53 -1.67,0.95 -3.83,0.95 -1.74,0 -3.16,-0.67 -1.42,-0.67 -2.42,-1.97 -1,-1.3 -1.54,-3.24 -0.54,-1.94 -0.54,-4.46 0,-2.24 0.6,-4.17 0.6,-1.93 1.73,-3.35 1.13,-1.42 2.75,-2.23 1.62,-0.81 3.68,-0.81 1.86,0 3.18,0.63 1.32,0.63 2.36,1.77 v -11.24 h 3.56 v 29.46 z m -6.9,-2.6 q 1.74,0 3.05,-0.8 1.31,-0.8 2.41,-2.26 v -9.8 q -0.98,-1.32 -2.15,-1.85 -1.17,-0.53 -2.59,-0.53 -2.84,0 -4.36,2.02 -1.52,2.02 -1.52,5.76 0,1.98 0.34,3.39 0.34,1.41 1,2.32 0.66,0.91 1.62,1.33 0.96,0.42 2.2,0.42 z m 18.96,-17.66 v 20.26 h -3.56 v -20.26 z m 0.8,-6.36 q 0,0.52 -0.21,0.97 -0.21,0.45 -0.56,0.8 -0.35,0.35 -0.81,0.55 -0.46,0.2 -0.98,0.2 -0.52,0 -0.97,-0.2 -0.45,-0.2 -0.8,-0.55 -0.35,-0.35 -0.55,-0.8 -0.2,-0.45 -0.2,-0.97 0,-0.52 0.2,-0.99 0.2,-0.47 0.55,-0.82 0.35,-0.35 0.8,-0.55 0.45,-0.2 0.97,-0.2 0.52,0 0.98,0.2 0.46,0.2 0.81,0.55 0.35,0.35 0.56,0.82 0.21,0.47 0.21,0.99 z m 13.5,6.04 q 1.82,0 3.359998,0.61 1.54,0.61 2.66,1.76 1.12,1.15 1.75,2.84 0.63,1.69 0.63,3.85 0,0.84 -0.18,1.12 -0.18,0.28 -0.68,0.28 H 78.802379 q 0.04,1.92 0.52,3.34 0.48,1.42 1.32,2.37 0.84,0.95 2,1.42 1.16,0.47 2.6,0.47 1.34,0 2.31,-0.31 0.969998,-0.31 1.669998,-0.67 0.7,-0.36 1.17,-0.67 0.47,-0.31 0.81,-0.31 0.44,0 0.68,0.34 l 1,1.3 q -0.66,0.8 -1.58,1.39 -0.92,0.59 -1.97,0.97 -1.05,0.38 -2.169998,0.57 -1.12,0.19 -2.22,0.19 -2.1,0 -3.87,-0.71 -1.77,-0.71 -3.06,-2.08 -1.29,-1.37 -2.01,-3.39 -0.72,-2.02 -0.72,-4.64 0,-2.12 0.65,-3.96 0.65,-1.84 1.87,-3.19 1.22,-1.35 2.98,-2.12 1.76,-0.77 3.96,-0.77 z m 0.08,2.62 q -2.58,0 -4.06,1.49 -1.48,1.49 -1.84,4.13 h 11.019998 q 0,-1.24 -0.34,-2.27 -0.34,-1.03 -1,-1.78 -0.659998,-0.75 -1.609998,-1.16 -0.95,-0.41 -2.17,-0.41 z m 41.340001,12.04 q 0.32,0 0.58,0.26 l 1.52,1.66 q -1.76,2.04 -4.27,3.18 -2.51,1.14 -6.05,1.14 -3.1,0 -5.62,-1.07 -2.52,-1.07 -4.3,-3 -1.78,-1.93 -2.76,-4.63 -0.98,-2.7 -0.98,-5.94 0,-3.24 1.05,-5.94 1.05,-2.7 2.95,-4.64 1.9,-1.94 4.55,-3.01 2.65,-1.07 5.85,-1.07 3.16,0 5.45,0.98 2.29,0.98 4.07,2.66 l -1.26,1.78 q -0.14,0.2 -0.32,0.33 -0.18,0.13 -0.52,0.13 -0.26,0 -0.55,-0.19 -0.29,-0.19 -0.69,-0.47 -0.4,-0.28 -0.94,-0.6 -0.54,-0.32 -1.28,-0.6 -0.74,-0.28 -1.72,-0.47 -0.98,-0.19 -2.26,-0.19 -2.3,0 -4.21,0.79 -1.91,0.79 -3.29,2.25 -1.38,1.46 -2.15,3.56 -0.77,2.1 -0.77,4.7 0,2.68 0.77,4.78 0.77,2.1 2.1,3.55 1.33,1.45 3.15,2.21 1.82,0.76 3.92,0.76 1.28,0 2.3,-0.15 1.02,-0.15 1.89,-0.47 0.87,-0.32 1.62,-0.81 0.75,-0.49 1.51,-1.17 0.34,-0.3 0.66,-0.3 z m 21.52,5.92 h -1.58 q -0.52,0 -0.84,-0.16 -0.32,-0.16 -0.42,-0.68 l -0.4,-1.88 q -0.8,0.72 -1.56,1.29 -0.76,0.57 -1.6,0.96 -0.84,0.39 -1.79,0.59 -0.95,0.2 -2.11,0.2 -1.18,0 -2.21,-0.33 -1.03,-0.33 -1.79,-0.99 -0.76,-0.66 -1.21,-1.67 -0.45,-1.01 -0.45,-2.39 0,-1.2 0.66,-2.31 0.66,-1.11 2.13,-1.97 1.47,-0.86 3.85,-1.41 2.38,-0.55 5.82,-0.63 v -1.58 q 0,-2.36 -1.01,-3.57 -1.01,-1.21 -2.99,-1.21 -1.3,0 -2.19,0.33 -0.89,0.33 -1.54,0.74 -0.65,0.41 -1.12,0.74 -0.47,0.33 -0.93,0.33 -0.36,0 -0.63,-0.19 -0.27,-0.19 -0.43,-0.47 l -0.64,-1.14 q 1.68,-1.62 3.62,-2.42 1.94,-0.8 4.3,-0.8 1.7,0 3.02,0.56 1.32,0.56 2.22,1.56 0.9,1 1.36,2.42 0.46,1.42 0.46,3.12 z m -9.24,-2.18 q 0.94,0 1.72,-0.19 0.78,-0.19 1.47,-0.54 0.69,-0.35 1.32,-0.85 0.63,-0.5 1.23,-1.14 v -4.22 q -2.46,0.08 -4.18,0.39 -1.72,0.31 -2.8,0.81 -1.08,0.5 -1.57,1.18 -0.49,0.68 -0.49,1.52 0,0.8 0.26,1.38 0.26,0.58 0.7,0.95 0.44,0.37 1.04,0.54 0.6,0.17 1.3,0.17 z m 14.64,2.18 v -20.26 h 2.04 q 0.58,0 0.8,0.22 0.22,0.22 0.3,0.76 l 0.24,3.16 q 1.04,-2.12 2.57,-3.31 1.53,-1.19 3.59,-1.19 0.84,0 1.52,0.19 0.68,0.19 1.26,0.53 l -0.46,2.66 q -0.14,0.5 -0.62,0.5 -0.28,0 -0.86,-0.19 -0.58,-0.19 -1.62,-0.19 -1.86,0 -3.11,1.08 -1.25,1.08 -2.09,3.14 v 12.9 z m 13.56,-20.26 h 2.92 q 0.42,0 0.7,0.22 0.28,0.22 0.4,0.52 l 5.14,13.04 q 0.28,0.72 0.44,1.44 0.16,0.72 0.3,1.42 0.16,-0.7 0.34,-1.42 0.18,-0.72 0.46,-1.44 l 5.2,-13.04 q 0.12,-0.32 0.39,-0.53 0.27,-0.21 0.67,-0.21 h 2.78 l -8.26,20.26 h -3.22 z m 37.92,20.26 h -1.58 q -0.52,0 -0.84,-0.16 -0.32,-0.16 -0.42,-0.68 l -0.4,-1.88 q -0.8,0.72 -1.56,1.29 -0.76,0.57 -1.6,0.96 -0.84,0.39 -1.79,0.59 -0.95,0.2 -2.11,0.2 -1.18,0 -2.21,-0.33 -1.03,-0.33 -1.79,-0.99 -0.76,-0.66 -1.21,-1.67 -0.45,-1.01 -0.45,-2.39 0,-1.2 0.66,-2.31 0.66,-1.11 2.13,-1.97 1.47,-0.86 3.85,-1.41 2.38,-0.55 5.82,-0.63 v -1.58 q 0,-2.36 -1.01,-3.57 -1.01,-1.21 -2.99,-1.21 -1.3,0 -2.19,0.33 -0.89,0.33 -1.54,0.74 -0.65,0.41 -1.12,0.74 -0.47,0.33 -0.93,0.33 -0.36,0 -0.63,-0.19 -0.27,-0.19 -0.43,-0.47 l -0.64,-1.14 q 1.68,-1.62 3.62,-2.42 1.94,-0.8 4.3,-0.8 1.7,0 3.02,0.56 1.32,0.56 2.22,1.56 0.9,1 1.36,2.42 0.46,1.42 0.46,3.12 z m -9.24,-2.18 q 0.94,0 1.72,-0.19 0.78,-0.19 1.47,-0.54 0.69,-0.35 1.32,-0.85 0.63,-0.5 1.23,-1.14 v -4.22 q -2.46,0.08 -4.18,0.39 -1.72,0.31 -2.8,0.81 -1.08,0.5 -1.57,1.18 -0.49,0.68 -0.49,1.52 0,0.8 0.26,1.38 0.26,0.58 0.7,0.95 0.44,0.37 1.04,0.54 0.6,0.17 1.3,0.17 z m 18.6,-27.28 v 29.46 h -3.56 v -29.46 z m 6.28,29.46 v -29.46 h 3.56 v 11.92 q 1.3,-1.38 2.88,-2.21 1.58,-0.83 3.64,-0.83 1.66,0 2.93,0.55 1.27,0.55 2.12,1.56 0.85,1.01 1.29,2.43 0.44,1.42 0.44,3.14 v 12.9 h -3.56 v -12.9 q 0,-2.3 -1.05,-3.57 -1.05,-1.27 -3.21,-1.27 -1.58,0 -2.95,0.76 -1.37,0.76 -2.53,2.06 v 14.92 z m 30.44,-20.58 q 2.22,0 4.01,0.74 1.79,0.74 3.04,2.1 1.25,1.36 1.92,3.29 0.67,1.93 0.67,4.31 0,2.4 -0.67,4.32 -0.67,1.92 -1.92,3.28 -1.25,1.36 -3.04,2.09 -1.79,0.73 -4.01,0.73 -2.22,0 -4.01,-0.73 -1.79,-0.73 -3.05,-2.09 -1.26,-1.36 -1.94,-3.28 -0.68,-1.92 -0.68,-4.32 0,-2.38 0.68,-4.31 0.68,-1.93 1.94,-3.29 1.26,-1.36 3.05,-2.1 1.79,-0.74 4.01,-0.74 z m 0,18.08 q 3,0 4.48,-2.01 1.48,-2.01 1.48,-5.61 0,-3.62 -1.48,-5.64 -1.48,-2.02 -4.48,-2.02 -1.52,0 -2.64,0.52 -1.12,0.52 -1.87,1.5 -0.75,0.98 -1.12,2.41 -0.37,1.43 -0.37,3.23 0,1.8 0.37,3.22 0.37,1.42 1.12,2.39 0.75,0.97 1.87,1.49 1.12,0.52 2.64,0.52 z m 41.84,-26.16 v 3.26 h -9.26 v 25.4 h -3.88 v -25.4 h -9.3 v -3.26 z m 3.52,28.66 v -29.46 h 3.56 v 11.92 q 1.3,-1.38 2.88,-2.21 1.58,-0.83 3.64,-0.83 1.66,0 2.93,0.55 1.27,0.55 2.12,1.56 0.85,1.01 1.29,2.43 0.44,1.42 0.44,3.14 v 12.9 h -3.56 v -12.9 q 0,-2.3 -1.05,-3.57 -1.05,-1.27 -3.21,-1.27 -1.58,0 -2.95,0.76 -1.37,0.76 -2.53,2.06 v 14.92 z m 30.26,-20.58 q 1.82,0 3.36,0.61 1.54,0.61 2.66,1.76 1.12,1.15 1.75,2.84 0.63,1.69 0.63,3.85 0,0.84 -0.18,1.12 -0.18,0.28 -0.68,0.28 h -13.48 q 0.04,1.92 0.52,3.34 0.48,1.42 1.32,2.37 0.84,0.95 2,1.42 1.16,0.47 2.6,0.47 1.34,0 2.31,-0.31 0.97,-0.31 1.67,-0.67 0.7,-0.36 1.17,-0.67 0.47,-0.31 0.81,-0.31 0.44,0 0.68,0.34 l 1,1.3 q -0.66,0.8 -1.58,1.39 -0.92,0.59 -1.97,0.97 -1.05,0.38 -2.17,0.57 -1.12,0.19 -2.22,0.19 -2.1,0 -3.87,-0.71 -1.77,-0.71 -3.06,-2.08 -1.29,-1.37 -2.01,-3.39 -0.72,-2.02 -0.72,-4.64 0,-2.12 0.65,-3.96 0.65,-1.84 1.87,-3.19 1.22,-1.35 2.98,-2.12 1.76,-0.77 3.96,-0.77 z m 0.08,2.62 q -2.58,0 -4.06,1.49 -1.48,1.49 -1.84,4.13 h 11.02 q 0,-1.24 -0.34,-2.27 -0.34,-1.03 -1,-1.78 -0.66,-0.75 -1.61,-1.16 -0.95,-0.41 -2.17,-0.41 z m 12.86,17.96 v -20.26 h 2.04 q 0.58,0 0.8,0.22 0.22,0.22 0.3,0.76 l 0.24,3.16 q 1.04,-2.12 2.57,-3.31 1.53,-1.19 3.59,-1.19 0.84,0 1.52,0.19 0.68,0.19 1.26,0.53 l -0.46,2.66 q -0.14,0.5 -0.62,0.5 -0.28,0 -0.86,-0.19 -0.58,-0.19 -1.62,-0.19 -1.86,0 -3.11,1.08 -1.25,1.08 -2.09,3.14 v 12.9 z m 31,0 h -1.58 q -0.52,0 -0.84,-0.16 -0.32,-0.16 -0.42,-0.68 l -0.4,-1.88 q -0.8,0.72 -1.56,1.29 -0.76,0.57 -1.6,0.96 -0.84,0.39 -1.79,0.59 -0.95,0.2 -2.11,0.2 -1.18,0 -2.21,-0.33 -1.03,-0.33 -1.79,-0.99 -0.76,-0.66 -1.21,-1.67 -0.45,-1.01 -0.45,-2.39 0,-1.2 0.66,-2.31 0.66,-1.11 2.13,-1.97 1.47,-0.86 3.85,-1.41 2.38,-0.55 5.82,-0.63 v -1.58 q 0,-2.36 -1.01,-3.57 -1.01,-1.21 -2.99,-1.21 -1.3,0 -2.19,0.33 -0.89,0.33 -1.54,0.74 -0.65,0.41 -1.12,0.74 -0.47,0.33 -0.93,0.33 -0.36,0 -0.63,-0.19 -0.27,-0.19 -0.43,-0.47 l -0.64,-1.14 q 1.68,-1.62 3.62,-2.42 1.94,-0.8 4.3,-0.8 1.7,0 3.02,0.56 1.32,0.56 2.22,1.56 0.9,1 1.36,2.42 0.46,1.42 0.46,3.12 z m -9.24,-2.18 q 0.94,0 1.72,-0.19 0.78,-0.19 1.47,-0.54 0.69,-0.35 1.32,-0.85 0.63,-0.5 1.23,-1.14 v -4.22 q -2.46,0.08 -4.18,0.39 -1.72,0.31 -2.8,0.81 -1.08,0.5 -1.57,1.18 -0.49,0.68 -0.49,1.52 0,0.8 0.26,1.38 0.26,0.58 0.7,0.95 0.44,0.37 1.04,0.54 0.6,0.17 1.3,0.17 z m 14.64,9.04 v -27.12 h 2.12 q 0.76,0 0.96,0.74 l 0.3,2.4 q 1.3,-1.58 2.97,-2.54 1.67,-0.96 3.85,-0.96 1.74,0 3.16,0.67 1.42,0.67 2.42,1.98 1,1.31 1.54,3.25 0.54,1.94 0.54,4.46 0,2.24 -0.6,4.17 -0.6,1.93 -1.72,3.34 -1.12,1.41 -2.75,2.22 -1.63,0.81 -3.67,0.81 -1.88,0 -3.21,-0.62 -1.33,-0.62 -2.35,-1.76 v 8.96 z m 9.02,-24.6 q -1.74,0 -3.05,0.8 -1.31,0.8 -2.41,2.26 v 9.8 q 0.98,1.32 2.15,1.86 1.17,0.54 2.61,0.54 2.82,0 4.34,-2.02 1.52,-2.02 1.52,-5.76 0,-1.98 -0.35,-3.4 -0.35,-1.42 -1.01,-2.33 -0.66,-0.91 -1.62,-1.33 -0.96,-0.42 -2.18,-0.42 z m 19,23.72 q -0.18,0.4 -0.45,0.64 -0.27,0.24 -0.83,0.24 h -2.64 l 3.7,-8.04 -8.36,-19.08 h 3.08 q 0.46,0 0.72,0.23 0.26,0.23 0.38,0.51 l 5.42,12.76 q 0.18,0.44 0.31,0.88 0.13,0.44 0.23,0.9 0.14,-0.46 0.28,-0.9 0.14,-0.44 0.32,-0.9 l 5.26,-12.74 q 0.12,-0.32 0.41,-0.53 0.29,-0.21 0.63,-0.21 h 2.84 z m 26.7,-9.24 h 12.4 v 3.26 h -16.28 v -28.66 h 3.88 z m 20.56,0 h 12.4 v 3.26 h -16.28 v -28.66 h 3.88 z m 36.88,-2.66 q 0.32,0 0.58,0.26 l 1.52,1.66 q -1.76,2.04 -4.27,3.18 -2.51,1.14 -6.05,1.14 -3.1,0 -5.62,-1.07 -2.52,-1.07 -4.3,-3 -1.78,-1.93 -2.76,-4.63 -0.98,-2.7 -0.98,-5.94 0,-3.24 1.05,-5.94 1.05,-2.7 2.95,-4.64 1.9,-1.94 4.55,-3.01 2.65,-1.07 5.85,-1.07 3.16,0 5.45,0.98 2.29,0.98 4.07,2.66 l -1.26,1.78 q -0.14,0.2 -0.32,0.33 -0.18,0.13 -0.52,0.13 -0.26,0 -0.55,-0.19 -0.29,-0.19 -0.69,-0.47 -0.4,-0.28 -0.94,-0.6 -0.54,-0.32 -1.28,-0.6 -0.74,-0.28 -1.72,-0.47 -0.98,-0.19 -2.26,-0.19 -2.3,0 -4.21,0.79 -1.91,0.79 -3.29,2.25 -1.38,1.46 -2.15,3.56 -0.77,2.1 -0.77,4.7 0,2.68 0.77,4.78 0.77,2.1 2.1,3.55 1.33,1.45 3.15,2.21 1.82,0.76 3.92,0.76 1.28,0 2.3,-0.15 1.02,-0.15 1.89,-0.47 0.87,-0.32 1.62,-0.81 0.75,-0.49 1.51,-1.17 0.34,-0.3 0.66,-0.3 z"
       id="path3745"
       inkscape:connector-curvature="0" />
    <text
       xml:space="preserve"
       style="font-style:normal;font-weight:normal;font-size:70.21894836px;line-height:1.25;font-family:sans-serif;letter-spacing:0px;word-spacing:0px;fill:#000000;fill-opacity:1;stroke:none;stroke-width:1.75547385"
       x="175.34001"
       y="45.180004"
       id="text3789"><tspan
         sodipodi:role="line"
         id="tspan3787"
         x="175.34001"
         y="109.24288"
         style="stroke-width:1.75547385"></tspan></text>
  </g>
</svg>
